<?xml version="1.0" encoding="utf-8"?>
<!-- Generator: Adobe Illustrator 14.0.0, SVG Export Plug-In . SVG Version: 6.00 Build 43363)  -->
<!DOCTYPE svg PUBLIC "-//W3C//DTD SVG 1.1//EN" "http://www.w3.org/Graphics/SVG/1.1/DTD/svg11.dtd">
<svg version="1.1" id="Layer_1" xmlns="http://www.w3.org/2000/svg" xmlns:xlink="http://www.w3.org/1999/xlink" x="0px" y="0px"
	 width="60px" height="40px" viewBox="0.638 0.426 60 40" enable-background="new 0.638 0.426 60 40" xml:space="preserve">
<g id="Magenta_1_" enable-background="new    ">
	<g id="Magenta">
		<g>
			<rect x="0.014" y="-0.009" fill="#702785" width="61.271" height="40.848"/>
		</g>
	</g>
</g>
<g id="M_1_" enable-background="new    ">
	<g id="M">
		<g>
			<path fill="#FFFFFF" d="M32.592,11.781c-2.642-2.382-5.142-3.1-5.142-3.1l-5.095,17.189h-0.044L17.216,8.681
				c0,0-2.5,0.718-5.142,3.1c-2.833,2.555-5.238,6.451-4.837,12.632c0.317,4.893,3.965,9.064,3.965,9.064l7.023-0.013
				c0,0-6.039-3.189-7.493-8.211c-1.72-5.937,0.972-10.054,3.053-12.018c0.836-0.733,2.071-0.903,2.537,0.679
				c1.565,5.028,6.002,19.4,6.002,19.4h0.017c0,0,4.438-14.373,6.002-19.4c0.466-1.582,1.7-1.412,2.536-0.679
				c2.081,1.964,4.773,6.081,3.055,12.018c-1.455,5.021-7.494,8.211-7.494,8.211l7.023,0.013c0,0,3.647-4.173,3.966-9.064
				C37.831,18.232,35.424,14.336,32.592,11.781z"/>
		</g>
	</g>
</g>
<g id="_x35__1_" enable-background="new    ">
	<g id="_x35_">
		<g>
			<path fill="#FFFFFF" d="M52.875,18.807c-1.12-1.544-2.972-2.615-4.69-2.615c-0.9,0-1.721,0.45-2.584,0.964l0.606-4.467
				l7.183,0.063L53.643,8.7H43.46l-1.794,13.02l3.08,0.477c0.883-1.169,1.37-1.947,2.482-1.947c0.892,0,1.963,0.136,2.619,0.785
				c0.812,0.802,1.225,2.104,1.09,4.026c-0.093,1.313-0.408,2.814-0.97,3.597c-0.562,0.781-1.311,1.107-2.118,1.107
				c-0.708,0-1.59-0.496-2.132-1.104c-0.542-0.606-0.868-2.266-0.979-3.304l-3.287,0.09c-0.025,2.074,0.486,4.318,1.855,5.96
				c1.071,1.287,2.697,1.851,4.563,1.851c2.335,0,3.777-0.736,5.092-2.856c0.967-1.551,1.514-3.38,1.514-5.357
				C54.476,22.672,54.325,20.808,52.875,18.807z"/>
		</g>
	</g>
</g>
</svg>
