<?xml version="1.0" encoding="utf-8"?>
<!-- Generator: Adobe Illustrator 14.0.0, SVG Export Plug-In . SVG Version: 6.00 Build 43363)  -->
<!DOCTYPE svg PUBLIC "-//W3C//DTD SVG 1.1//EN" "http://www.w3.org/Graphics/SVG/1.1/DTD/svg11.dtd">
<svg version="1.1" id="Layer_1" xmlns="http://www.w3.org/2000/svg" xmlns:xlink="http://www.w3.org/1999/xlink" x="0px" y="0px"
	 width="60px" height="40px" viewBox="0.638 0.426 60 40" enable-background="new 0.638 0.426 60 40" xml:space="preserve">
<g id="Blue_1_" enable-background="new    ">
	<g id="Blue">
		<g>
			<rect x="0.014" y="-0.009" fill="#0078c9" width="61.271" height="40.848"/>
		</g>
	</g>
</g>
<g id="M_1_" enable-background="new    ">
	<g id="M">
		<g>
			<path fill="#FFFFFF" d="M32.592,11.781c-2.642-2.382-5.142-3.1-5.142-3.1l-5.095,17.189h-0.044L17.216,8.681
				c0,0-2.5,0.718-5.142,3.1c-2.833,2.555-5.238,6.451-4.837,12.632c0.317,4.893,3.965,9.064,3.965,9.064l7.023-0.013
				c0,0-6.039-3.189-7.493-8.211c-1.72-5.937,0.972-10.054,3.053-12.018c0.836-0.733,2.071-0.903,2.537,0.679
				c1.565,5.028,6.002,19.4,6.002,19.4h0.017c0,0,4.438-14.373,6.002-19.4c0.466-1.582,1.7-1.412,2.536-0.679
				c2.081,1.964,4.773,6.081,3.055,12.018c-1.455,5.021-7.494,8.211-7.494,8.211l7.023,0.013c0,0,3.647-4.173,3.966-9.064
				C37.831,18.232,35.424,14.336,32.592,11.781z"/>
		</g>
	</g>
</g>
<g id="_x32__1_" enable-background="new    ">
	<g id="_x32_">
		<g>
			<path fill="#FFFFFF" d="M47.921,26.836c0.311-0.425,1.045-1.285,2.205-2.581c1.16-1.295,1.963-2.288,2.408-2.979
				c0.671-1.041,1.162-2.037,1.472-2.987c0.311-0.951,0.465-1.952,0.465-3.003c0-1.848-0.541-3.394-1.622-4.636
				c-1.082-1.242-2.568-1.864-4.462-1.864c-1.729,0-3.166,0.536-4.317,1.609c-1.152,1.072-2.22,2.969-2.246,5.752l3.854-0.001
				c0.07-1.307,0.332-2.24,0.786-2.805c0.453-0.563,1.063-0.844,1.831-0.844c0.776,0,1.386,0.269,1.826,0.805s0.66,1.305,0.66,2.303
				c0,0.902-0.253,1.815-0.759,2.74c-0.375,0.669-1.393,1.942-3.049,3.822c-2.06,2.326-3.438,4.192-4.136,5.601
				c-0.697,1.407-1.116,2.896-1.257,4.469H54.47v-4.158h-7.302C47.361,27.675,47.612,27.26,47.921,26.836z"/>
		</g>
	</g>
</g>
</svg>
