<?xml version="1.0" encoding="utf-8"?>
<!-- Generator: Adobe Illustrator 14.0.0, SVG Export Plug-In . SVG Version: 6.00 Build 43363)  -->
<!DOCTYPE svg PUBLIC "-//W3C//DTD SVG 1.1//EN" "http://www.w3.org/Graphics/SVG/1.1/DTD/svg11.dtd">
<svg version="1.1" id="Layer_1" xmlns="http://www.w3.org/2000/svg" xmlns:xlink="http://www.w3.org/1999/xlink" x="0px" y="0px"
	 width="60px" height="40px" viewBox="0.638 0.426 60 40" enable-background="new 0.638 0.426 60 40" xml:space="preserve">
<g id="Green_1_" enable-background="new    ">
	<g id="Green">
		<g>
			<rect x="0.014" y="-0.009" fill="#009a49" width="61.271" height="40.848"/>
		</g>
	</g>
</g>
<g id="M_1_" enable-background="new    ">
	<g id="M">
		<g>
			<path fill="#FFFFFF" d="M32.592,11.781c-2.642-2.382-5.142-3.1-5.142-3.1l-5.095,17.189h-0.044L17.216,8.681
				c0,0-2.5,0.718-5.142,3.1c-2.833,2.555-5.238,6.451-4.837,12.632c0.317,4.893,3.965,9.064,3.965,9.064l7.023-0.013
				c0,0-6.039-3.189-7.493-8.211c-1.72-5.937,0.972-10.054,3.053-12.018c0.836-0.733,2.071-0.903,2.537,0.679
				c1.565,5.028,6.002,19.4,6.002,19.4h0.017c0,0,4.438-14.373,6.002-19.4c0.466-1.582,1.7-1.412,2.536-0.679
				c2.081,1.964,4.773,6.081,3.055,12.018c-1.455,5.021-7.494,8.211-7.494,8.211l7.023,0.013c0,0,3.647-4.173,3.966-9.064
				C37.831,18.232,35.424,14.336,32.592,11.781z"/>
		</g>
	</g>
</g>
<g id="_x33__1_" enable-background="new    ">
	<g id="_x33_">
		<g>
			<path fill="#FFFFFF" d="M54.477,21.611c-0.687-0.998-1.602-1.642-2.744-1.928c1.915-1.222,2.873-2.857,2.873-4.906
				c0-1.445-0.468-2.74-1.402-3.887c-1.135-1.402-2.642-2.104-4.521-2.104c-1.101,0-2.092,0.242-2.978,0.726
				c-0.885,0.483-1.576,1.146-2.069,1.991c-0.941,1.61-1.12,3.059-1.237,4.087l3.655-0.001c0.1-1.02,0.381-1.795,0.845-2.325
				c0.463-0.531,1.021-0.798,1.675-0.798c0.663,0,1.194,0.234,1.594,0.701c0.4,0.467,0.6,1.095,0.6,1.88
				c0,0.925-0.271,1.665-0.816,2.223s-1.463,1.013-2.498,0.979l-0.007,3.169c0.744-0.063,0.979-0.047,1.47-0.047
				c0.744,0,1.375,0.329,1.894,0.987c0.518,0.658,0.775,1.551,0.775,2.676c0,1.19-0.27,2.135-0.81,2.836s-1.206,1.052-1.996,1.052
				c-0.735,0-1.361-0.292-1.879-0.876c-0.519-0.584-0.836-1.429-0.953-2.532l-3.96,0.015c0.317,2.795,1.136,4.065,2.325,5.282
				c1.188,1.217,2.688,1.823,4.494,1.823c1.906,0,3.501-0.722,4.78-2.167c1.279-1.443,1.92-3.19,1.92-5.24
				C55.505,23.815,55.163,22.61,54.477,21.611z"/>
		</g>
	</g>
</g>
</svg>
