<?xml version="1.0" encoding="utf-8"?>
<!-- Generator: Adobe Illustrator 14.0.0, SVG Export Plug-In . SVG Version: 6.00 Build 43363)  -->
<!DOCTYPE svg PUBLIC "-//W3C//DTD SVG 1.1//EN" "http://www.w3.org/Graphics/SVG/1.1/DTD/svg11.dtd">
<svg version="1.1" id="Layer_1" xmlns="http://www.w3.org/2000/svg" xmlns:xlink="http://www.w3.org/1999/xlink" x="0px" y="0px"
	 width="60px" height="40px" viewBox="0.638 0.426 60 40" enable-background="new 0.638 0.426 60 40" xml:space="preserve">
<g id="Colour_1_" enable-background="new    ">
	<g id="Colour">
		<g>
			<rect x="0.014" y="-0.009" fill="#8d5b2d" width="61.271" height="40.848"/>
		</g>
	</g>
</g>
<g id="M_1_" enable-background="new    ">
	<g id="M">
		<g>
			<path fill="#FFFFFF" d="M32.592,11.781c-2.642-2.382-5.142-3.1-5.142-3.1l-5.095,17.189h-0.044L17.216,8.681
				c0,0-2.5,0.718-5.142,3.1c-2.833,2.555-5.238,6.451-4.837,12.632c0.317,4.893,3.965,9.064,3.965,9.064l7.023-0.013
				c0,0-6.039-3.189-7.493-8.211c-1.72-5.937,0.972-10.054,3.053-12.018c0.836-0.733,2.071-0.903,2.537,0.679
				c1.565,5.028,6.002,19.4,6.002,19.4h0.017c0,0,4.438-14.373,6.002-19.4c0.466-1.582,1.7-1.412,2.536-0.679
				c2.081,1.964,4.773,6.081,3.055,12.018c-1.455,5.021-7.494,8.211-7.494,8.211l7.023,0.013c0,0,3.647-4.173,3.966-9.064
				C37.831,18.232,35.424,14.336,32.592,11.781z"/>
		</g>
	</g>
</g>
<g id="_x36__1_" enable-background="new    ">
	<g id="_x36_">
		<g>
			<path fill="#FFFFFF" d="M51.866,19.716c-1.021-1.423-2.248-2.135-3.68-2.135c-1.27,0-2.33,0.659-3.186,1.976
				c0.13-2.688,0.445-4.455,0.945-5.306c0.501-0.85,1.112-1.274,1.837-1.274c0.545,0,0.988,0.213,1.33,0.637
				c0.342,0.425,0.553,1.084,0.635,1.976l3.404,0.032c-0.244-1.89-0.896-3.672-1.787-4.666c-0.892-0.993-2.016-1.66-3.375-1.66
				c-1.937,0-3.51,0.946-4.723,2.835c-1.212,1.892-1.817,4.978-1.817,9.256c0,4.175,0.581,7.178,1.744,9.01
				c1.164,1.832,2.647,2.748,4.454,2.748c1.685,0,3.063-0.724,4.138-2.167c1.073-1.444,1.61-3.361,1.61-5.751
				C53.397,22.976,52.886,21.139,51.866,19.716z M49.407,28.461c-0.424,0.648-0.952,0.974-1.586,0.974
				c-0.66,0-1.245-0.396-1.758-1.188c-0.514-0.791-0.77-1.913-0.77-3.369c0-1.315,0.229-2.313,0.684-2.985
				c0.456-0.676,1.014-1.013,1.672-1.013c0.684,0,1.253,0.354,1.709,1.06c0.455,0.707,0.683,1.818,0.683,3.338
				C50.041,26.752,49.83,27.815,49.407,28.461z"/>
		</g>
	</g>
</g>
</svg>
