<?xml version="1.0" encoding="utf-8"?>
<!-- Generator: Adobe Illustrator 14.0.0, SVG Export Plug-In . SVG Version: 6.00 Build 43363)  -->
<!DOCTYPE svg PUBLIC "-//W3C//DTD SVG 1.1//EN" "http://www.w3.org/Graphics/SVG/1.1/DTD/svg11.dtd">
<svg version="1.1" id="Layer_1" xmlns="http://www.w3.org/2000/svg" xmlns:xlink="http://www.w3.org/1999/xlink" x="0px" y="0px"
	 width="60px" height="40px" viewBox="0.638 0.426 60 40" enable-background="new 0.638 0.426 60 40" xml:space="preserve">
<g id="Orange_1_" enable-background="new    ">
	<g id="Orange">
		<g>
			<rect x="0.014" y="-0.009" fill="#ea7125" width="61.271" height="40.848"/>
		</g>
	</g>
</g>
<g id="M_1_" enable-background="new    ">
	<g id="M">
		<g>
			<path fill="#FFFFFF" d="M32.592,11.781c-2.642-2.382-5.142-3.1-5.142-3.1l-5.095,17.189h-0.044L17.216,8.681
				c0,0-2.5,0.718-5.142,3.1c-2.833,2.555-5.238,6.451-4.837,12.632c0.317,4.893,3.965,9.064,3.965,9.064l7.023-0.013
				c0,0-6.039-3.189-7.493-8.211c-1.72-5.937,0.972-10.054,3.053-12.018c0.836-0.733,2.071-0.903,2.537,0.679
				c1.565,5.028,6.002,19.4,6.002,19.4h0.017c0,0,4.438-14.373,6.002-19.4c0.466-1.582,1.7-1.412,2.536-0.679
				c2.081,1.964,4.773,6.081,3.055,12.018c-1.455,5.021-7.494,8.211-7.494,8.211l7.023,0.013c0,0,3.647-4.173,3.966-9.064
				C37.831,18.232,35.424,14.336,32.592,11.781z"/>
		</g>
	</g>
</g>
<g id="_x34__1_" enable-background="new    ">
	<g id="_x34_">
		<g>
			<path fill="#FFFFFF" d="M52.514,23.602V8.787h-2.881l-7.761,14.832v3.919h7.321v4.699h3.319v-4.699h2.222v-3.936H52.514z
				 M49.195,23.602h-4.112l4.112-7.981V23.602z"/>
		</g>
	</g>
</g>
</svg>
